<?xml version="1.0" encoding="utf-8"?>
<!-- Generator: Adobe Illustrator 23.0.2, SVG Export Plug-In . SVG Version: 6.00 Build 0)  -->
<svg version="1.1" id="pk_sym" xmlns="http://www.w3.org/2000/svg" xmlns:xlink="http://www.w3.org/1999/xlink" x="0px" y="0px"
	 viewBox="0 0 613 449" style="enable-background:new 0 0 613 449;" xml:space="preserve">
<style type="text/css">
	.st0{fill:none;stroke:#FFFFFF;}
	.st1{fill:none;stroke:#FFFFFF;stroke-dasharray:8,8;}
	.st2{clip-path:url(#SVGID_2_);}
	.st3{fill:#FFFFB4;stroke:#0000FF;}
	.st4{fill:#0000FF;}
	.st5{font-family:'Arial-BoldMT';}
	.st6{font-size:10px;}
	.st7{fill:none;stroke:#0000FF;}
	.st8{fill:#FF0000;}
	.st9{font-family:'ArialMT';}
	.st10{fill:#008000;}
	.st11{fill:#FF8345;stroke:#0000FF;}
	.st12{fill:#13BF3B;stroke:#0000FF;}
	.st13{clip-path:url(#SVGID_4_);}
	.st14{clip-path:url(#SVGID_6_);}
	.st15{clip-path:url(#SVGID_8_);}
</style>
<g>
	<path class="st0" d="M407,141l-97,43"/>
	<polygon class="st0" points="407,141 403,145 401,141 	"/>
	<path class="st0" d="M308,179l12,1l-8,9 M318.5,174.8l4,10"/>
</g>
<g>
	<path class="st1" d="M503,141v67"/>
	<polygon class="st0" points="503,141 506,147 500,147 	"/>
	<path class="st0" d="M497,208l6-12l6,12 M497,195.4h12"/>
</g>
<g>
	<path class="st0" d="M445,375l-135-79"/>
	<polygon class="st0" points="445,375 439,374 441,370 	"/>
	<path class="st0" d="M313,291l7,11l-13-1 M323.5,297.3l-6,10"/>
</g>
<g>
	<path class="st1" d="M503,375v-65"/>
	<polygon class="st0" points="503,375 500,369 506,369 	"/>
	<path class="st0" d="M509,310l-6,12l-6-12 M509,322.6h-12"/>
</g>
<g>
	<defs>
		<rect id="SVGID_1_" x="91" y="158" width="219" height="150"/>
	</defs>
	<clipPath id="SVGID_2_">
		<use xlink:href="#SVGID_1_"  style="overflow:visible;"/>
	</clipPath>
	<g transform="translate(91,158)" class="st2">
		<rect y="0" class="st3" width="218" height="149"/>
		<text transform="matrix(1 0 0 1 52 14)" class="st4 st5 st6">C##PARTH.MESSAGES</text>
		<line class="st7" x1="0" y1="18" x2="217" y2="18"/>
		<text transform="matrix(1 0 0 1 16 32)" class="st8 st9 st6">*</text>
		<text transform="matrix(1 0 0 1 2 32)" class="st4 st9 st6">PF</text>
		<text transform="matrix(1 0 0 1 26 32)" class="st9 st6">UUID</text>
		<text transform="matrix(1 0 0 1 93 32)" class="st10 st9 st6">NUMBER (*,0)</text>
		<text transform="matrix(1 0 0 1 16 46)" class="st8 st9 st6">*</text>
		<text transform="matrix(1 0 0 1 2 46)" class="st4 st9 st6">PF</text>
		<text transform="matrix(1 0 0 1 26 46)" class="st9 st6">RUID</text>
		<text transform="matrix(1 0 0 1 93 46)" class="st10 st9 st6">NUMBER (*,0)</text>
		<text transform="matrix(1 0 0 1 26 60)" class="st9 st6">ISGROUP</text>
		<text transform="matrix(1 0 0 1 93 60)" class="st10 st9 st6">NUMBER (*,0)</text>
		<text transform="matrix(1 0 0 1 16 74)" class="st8 st9 st6">*</text>
		<text transform="matrix(1 0 0 1 2 74)" class="st4 st9 st6">P</text>
		<text transform="matrix(1 0 0 1 26 74)" class="st9 st6">TIME</text>
		<text transform="matrix(1 0 0 1 93 74)" class="st10 st9 st6">TIMESTAMP</text>
		<text transform="matrix(1 0 0 1 26 88)" class="st9 st6">CONTENT</text>
		<text transform="matrix(1 0 0 1 93 88)" class="st10 st9 st6">VARCHAR2 (100 BYTE)</text>
		<line class="st7" x1="0" y1="94" x2="217" y2="94"/>
		<g>
			<g>
				<path class="st11" d="M11,106.5c0.1,0.1,0.1,0.1,0.2,0.2c0.1,0.1,0.1,0.1,0.2,0.2c0.1,0.1,0.1,0.1,0.1,0.1
					c0.1,0,0.2-0.1,0.3-0.2c0.2-0.2,0.2-0.3,0.2-0.3c0,0,0-0.1-0.1-0.2c-0.1-0.1-0.2-0.2-0.3-0.4c-0.1-0.1-0.3-0.3-0.4-0.4
					c-0.1-0.1-0.3-0.3-0.4-0.4c-0.1-0.1-0.2-0.2-0.2-0.2c0,0-0.1,0-0.1,0c-0.1,0-0.2,0.1-0.3,0.2c-0.2,0.2-0.2,0.3-0.2,0.3
					c0,0,0,0.1,0.1,0.1c0.1,0.1,0.1,0.1,0.2,0.2c0.1,0.1,0.1,0.1,0.2,0.2c0.1,0.1,0.1,0.1,0.1,0.1l-0.5,0.5l-1.7-1.7
					c0.4-0.6,0.6-1.1,0.6-1.7c0-0.5-0.2-0.9-0.5-1.3c-0.3-0.3-0.7-0.5-1.3-0.5c-0.5,0-1,0.2-1.5,0.5c-0.5,0.3-0.9,0.7-1.2,1.2
					c-0.3,0.5-0.5,1-0.5,1.5c0,0.5,0.2,0.9,0.5,1.3c0.3,0.3,0.7,0.5,1.3,0.5c0.6,0,1.2-0.2,1.7-0.6l3.2,3.2c0.1,0.1,0.2,0.1,0.3,0.1
					c0.1,0,0.3-0.1,0.4-0.2c0.1-0.1,0.2-0.3,0.2-0.4c0-0.1,0-0.2-0.1-0.3l-1-1l0.5-0.5C10.9,106.4,10.9,106.4,11,106.5z M7.7,103.7
					C7.5,103.9,7.3,104,7,104c-0.1,0-0.3,0-0.4-0.1c0.1,0.1,0.1,0.3,0.1,0.4c0,0.3-0.1,0.5-0.3,0.6c-0.2,0.2-0.4,0.3-0.6,0.3
					c-0.3,0-0.5-0.1-0.6-0.3c-0.2-0.2-0.3-0.4-0.3-0.6c0-0.3,0.1-0.5,0.3-0.6c0.2-0.2,0.4-0.3,0.6-0.3c0.1,0,0.3,0,0.4,0.1
					c-0.1-0.1-0.1-0.3-0.1-0.4c0-0.3,0.1-0.5,0.3-0.6c0.2-0.2,0.4-0.3,0.6-0.3c0.3,0,0.5,0.1,0.6,0.3c0.2,0.2,0.3,0.4,0.3,0.6
					C8,103.3,7.9,103.5,7.7,103.7z"/>
			</g>
		</g>
		<text transform="matrix(1 0 0 1 16 108)" class="st9 st6">MESSAGES_PK (UUID, RUID, TIME)</text>
		<line class="st7" x1="0" y1="114" x2="217" y2="114"/>
		<g>
			<g>
				<path class="st12" d="M10.6,126.2c-0.4,0-0.7,0.2-1,0.4l-2.9-1.4c0-0.1,0-0.1,0-0.2c0-0.1,0-0.1,0-0.2l2.9-1.4
					c0.2,0.3,0.6,0.4,1,0.4c0.8,0,1.4-0.6,1.4-1.4c0-0.8-0.6-1.4-1.4-1.4s-1.4,0.6-1.4,1.4c0,0.1,0,0.1,0,0.2L6.4,124
					c-0.2-0.3-0.6-0.4-1-0.4c-0.8,0-1.4,0.6-1.4,1.4c0,0.8,0.6,1.4,1.4,1.4c0.4,0,0.7-0.2,1-0.4l2.9,1.4c0,0.1,0,0.1,0,0.2
					c0,0.8,0.6,1.4,1.4,1.4c0.8,0,1.4-0.6,1.4-1.4C12,126.8,11.4,126.2,10.6,126.2z"/>
			</g>
		</g>
		<a xlink:href="#6BBA3FCB-F7E2C59F63E6" >
			<text transform="matrix(1 0 0 1 16 128)" class="st9 st6">SYS_C007754 (UUID)</text>
		</a>
		<g>
			<g>
				<path class="st12" d="M10.6,140.2c-0.4,0-0.7,0.2-1,0.4l-2.9-1.4c0-0.1,0-0.1,0-0.2c0-0.1,0-0.1,0-0.2l2.9-1.4
					c0.2,0.3,0.6,0.4,1,0.4c0.8,0,1.4-0.6,1.4-1.4c0-0.8-0.6-1.4-1.4-1.4s-1.4,0.6-1.4,1.4c0,0.1,0,0.1,0,0.2L6.4,138
					c-0.2-0.3-0.6-0.4-1-0.4c-0.8,0-1.4,0.6-1.4,1.4c0,0.8,0.6,1.4,1.4,1.4c0.4,0,0.7-0.2,1-0.4l2.9,1.4c0,0.1,0,0.1,0,0.2
					c0,0.8,0.6,1.4,1.4,1.4c0.8,0,1.4-0.6,1.4-1.4C12,140.8,11.4,140.2,10.6,140.2z"/>
			</g>
		</g>
		<a xlink:href="#836E1366-8ACBFF851658" >
			<text transform="matrix(1 0 0 1 16 142)" class="st9 st6">SYS_C007755 (RUID)</text>
		</a>
	</g>
</g>
<g>
	<defs>
		<rect id="SVGID_3_" x="417" y="208" width="172" height="102"/>
	</defs>
	<clipPath id="SVGID_4_">
		<use xlink:href="#SVGID_3_"  style="overflow:visible;"/>
	</clipPath>
	<g transform="translate(417,208)" class="st13">
		<rect y="0" class="st3" width="171" height="101"/>
		<text transform="matrix(1 0 0 1 25 14)" class="st4 st5 st6">C##PARTH.USER_ROOM</text>
		<line class="st7" x1="0" y1="18" x2="170" y2="18"/>
		<text transform="matrix(1 0 0 1 2 32)" class="st9 st6">F</text>
		<text transform="matrix(1 0 0 1 26 32)" class="st9 st6">UUID</text>
		<text transform="matrix(1 0 0 1 93 32)" class="st10 st9 st6">NUMBER (*,0)</text>
		<text transform="matrix(1 0 0 1 2 46)" class="st9 st6">F</text>
		<text transform="matrix(1 0 0 1 26 46)" class="st9 st6">RUID</text>
		<text transform="matrix(1 0 0 1 93 46)" class="st10 st9 st6">NUMBER (*,0)</text>
		<text transform="matrix(1 0 0 1 26 60)" class="st9 st6">ISGROUP</text>
		<text transform="matrix(1 0 0 1 93 60)" class="st10 st9 st6">NUMBER (*,0)</text>
		<line class="st7" x1="0" y1="66" x2="170" y2="66"/>
		<g>
			<g>
				<path class="st12" d="M10.6,78.2c-0.4,0-0.7,0.2-1,0.4l-2.9-1.4c0-0.1,0-0.1,0-0.2c0-0.1,0-0.1,0-0.2l2.9-1.4
					c0.2,0.3,0.6,0.4,1,0.4c0.8,0,1.4-0.6,1.4-1.4c0-0.8-0.6-1.4-1.4-1.4s-1.4,0.6-1.4,1.4c0,0.1,0,0.1,0,0.2L6.4,76
					c-0.2-0.3-0.6-0.4-1-0.4C4.6,75.6,4,76.2,4,77c0,0.8,0.6,1.4,1.4,1.4c0.4,0,0.7-0.2,1-0.4l2.9,1.4c0,0.1,0,0.1,0,0.2
					c0,0.8,0.6,1.4,1.4,1.4c0.8,0,1.4-0.6,1.4-1.4C12,78.8,11.4,78.2,10.6,78.2z"/>
			</g>
		</g>
		<a xlink:href="#6BBA3FCB-F7E2C59F63E6" >
			<text transform="matrix(1 0 0 1 16 80)" class="st9 st6">SYS_C007751 (UUID)</text>
		</a>
		<g>
			<g>
				<path class="st12" d="M10.6,92.2c-0.4,0-0.7,0.2-1,0.4l-2.9-1.4c0-0.1,0-0.1,0-0.2c0-0.1,0-0.1,0-0.2l2.9-1.4
					c0.2,0.3,0.6,0.4,1,0.4c0.8,0,1.4-0.6,1.4-1.4c0-0.8-0.6-1.4-1.4-1.4s-1.4,0.6-1.4,1.4c0,0.1,0,0.1,0,0.2L6.4,90
					c-0.2-0.3-0.6-0.4-1-0.4C4.6,89.6,4,90.2,4,91c0,0.8,0.6,1.4,1.4,1.4c0.4,0,0.7-0.2,1-0.4l2.9,1.4c0,0.1,0,0.1,0,0.2
					c0,0.8,0.6,1.4,1.4,1.4c0.8,0,1.4-0.6,1.4-1.4C12,92.8,11.4,92.2,10.6,92.2z"/>
			</g>
		</g>
		<a xlink:href="#836E1366-8ACBFF851658" >
			<text transform="matrix(1 0 0 1 16 94)" class="st9 st6">SYS_C007752 (RUID)</text>
		</a>
	</g>
</g>
<g>
	<defs>
		<rect id="SVGID_5_" x="400" y="53" width="213" height="88"/>
	</defs>
	<clipPath id="SVGID_6_">
		<use xlink:href="#SVGID_5_"  style="overflow:visible;"/>
	</clipPath>
	<g transform="translate(400,53)" class="st14">
		<rect y="0" class="st3" width="212" height="87"/>
		<text transform="matrix(1 0 0 1 59 14)" class="st4 st5 st6">C##PARTH.ROOMS</text>
		<line class="st7" x1="0" y1="18" x2="211" y2="18"/>
		<text transform="matrix(1 0 0 1 16 32)" class="st8 st9 st6">*</text>
		<text transform="matrix(1 0 0 1 2 32)" class="st4 st9 st6">P</text>
		<text transform="matrix(1 0 0 1 26 32)" class="st9 st6">RUID</text>
		<text transform="matrix(1 0 0 1 93 32)" class="st10 st9 st6">NUMBER (*,0)</text>
		<text transform="matrix(1 0 0 1 26 46)" class="st9 st6">NAME</text>
		<text transform="matrix(1 0 0 1 93 46)" class="st10 st9 st6">VARCHAR2 (21 BYTE)</text>
		<text transform="matrix(1 0 0 1 26 60)" class="st9 st6">ISGROUP</text>
		<text transform="matrix(1 0 0 1 93 60)" class="st10 st9 st6">NUMBER (*,0)</text>
		<line class="st7" x1="0" y1="66" x2="211" y2="66"/>
		<g>
			<g>
				<path class="st11" d="M11,78.5c0.1,0.1,0.1,0.1,0.2,0.2c0.1,0.1,0.1,0.1,0.2,0.2c0.1,0.1,0.1,0.1,0.1,0.1c0.1,0,0.2-0.1,0.3-0.2
					c0.2-0.2,0.2-0.3,0.2-0.3c0,0,0-0.1-0.1-0.2c-0.1-0.1-0.2-0.2-0.3-0.4c-0.1-0.1-0.3-0.3-0.4-0.4c-0.1-0.1-0.3-0.3-0.4-0.4
					c-0.1-0.1-0.2-0.2-0.2-0.2c0,0-0.1,0-0.1,0c-0.1,0-0.2,0.1-0.3,0.2c-0.2,0.2-0.2,0.3-0.2,0.3c0,0,0,0.1,0.1,0.1
					c0.1,0.1,0.1,0.1,0.2,0.2c0.1,0.1,0.1,0.1,0.2,0.2c0.1,0.1,0.1,0.1,0.1,0.1l-0.5,0.5l-1.7-1.7c0.4-0.6,0.6-1.1,0.6-1.7
					c0-0.5-0.2-0.9-0.5-1.3c-0.3-0.3-0.7-0.5-1.3-0.5c-0.5,0-1,0.2-1.5,0.5c-0.5,0.3-0.9,0.7-1.2,1.2c-0.3,0.5-0.5,1-0.5,1.5
					c0,0.5,0.2,0.9,0.5,1.3c0.3,0.3,0.7,0.5,1.3,0.5c0.6,0,1.2-0.2,1.7-0.6l3.2,3.2c0.1,0.1,0.2,0.1,0.3,0.1c0.1,0,0.3-0.1,0.4-0.2
					c0.1-0.1,0.2-0.3,0.2-0.4c0-0.1,0-0.2-0.1-0.3l-1-1l0.5-0.5C10.9,78.4,10.9,78.4,11,78.5z M7.7,75.7C7.5,75.9,7.3,76,7,76
					c-0.1,0-0.3,0-0.4-0.1c0.1,0.1,0.1,0.3,0.1,0.4c0,0.3-0.1,0.5-0.3,0.6c-0.2,0.2-0.4,0.3-0.6,0.3c-0.3,0-0.5-0.1-0.6-0.3
					c-0.2-0.2-0.3-0.4-0.3-0.6c0-0.3,0.1-0.5,0.3-0.6c0.2-0.2,0.4-0.3,0.6-0.3c0.1,0,0.3,0,0.4,0.1c-0.1-0.1-0.1-0.3-0.1-0.4
					c0-0.3,0.1-0.5,0.3-0.6c0.2-0.2,0.4-0.3,0.6-0.3c0.3,0,0.5,0.1,0.6,0.3C7.9,74.6,8,74.8,8,75C8,75.3,7.9,75.5,7.7,75.7z"/>
			</g>
		</g>
		<text transform="matrix(1 0 0 1 16 80)" class="st9 st6">ROOMS_PK (RUID)</text>
	</g>
</g>
<g>
	<defs>
		<rect id="SVGID_7_" x="414" y="375" width="190" height="74"/>
	</defs>
	<clipPath id="SVGID_8_">
		<use xlink:href="#SVGID_7_"  style="overflow:visible;"/>
	</clipPath>
	<g transform="translate(414,375)" class="st15">
		<rect y="0" class="st3" width="189" height="73"/>
		<text transform="matrix(1 0 0 1 50 14)" class="st4 st5 st6">C##PARTH.USERS</text>
		<line class="st7" x1="0" y1="18" x2="188" y2="18"/>
		<text transform="matrix(1 0 0 1 16 32)" class="st8 st9 st6">*</text>
		<text transform="matrix(1 0 0 1 2 32)" class="st4 st9 st6">P</text>
		<text transform="matrix(1 0 0 1 26 32)" class="st9 st6">UUID</text>
		<text transform="matrix(1 0 0 1 70 32)" class="st10 st9 st6">NUMBER (*,0)</text>
		<text transform="matrix(1 0 0 1 26 46)" class="st9 st6">NAME</text>
		<text transform="matrix(1 0 0 1 70 46)" class="st10 st9 st6">VARCHAR2 (10 BYTE)</text>
		<line class="st7" x1="0" y1="52" x2="188" y2="52"/>
		<g>
			<g>
				<path class="st11" d="M11,64.5c0.1,0.1,0.1,0.1,0.2,0.2c0.1,0.1,0.1,0.1,0.2,0.2c0.1,0.1,0.1,0.1,0.1,0.1c0.1,0,0.2-0.1,0.3-0.2
					c0.2-0.2,0.2-0.3,0.2-0.3c0,0,0-0.1-0.1-0.2c-0.1-0.1-0.2-0.2-0.3-0.4c-0.1-0.1-0.3-0.3-0.4-0.4c-0.1-0.1-0.3-0.3-0.4-0.4
					c-0.1-0.1-0.2-0.2-0.2-0.2c0,0-0.1,0-0.1,0c-0.1,0-0.2,0.1-0.3,0.2c-0.2,0.2-0.2,0.3-0.2,0.3c0,0,0,0.1,0.1,0.1
					c0.1,0.1,0.1,0.1,0.2,0.2c0.1,0.1,0.1,0.1,0.2,0.2c0.1,0.1,0.1,0.1,0.1,0.1l-0.5,0.5l-1.7-1.7c0.4-0.6,0.6-1.1,0.6-1.7
					c0-0.5-0.2-0.9-0.5-1.3c-0.3-0.3-0.7-0.5-1.3-0.5c-0.5,0-1,0.2-1.5,0.5c-0.5,0.3-0.9,0.7-1.2,1.2c-0.3,0.5-0.5,1-0.5,1.5
					c0,0.5,0.2,0.9,0.5,1.3c0.3,0.3,0.7,0.5,1.3,0.5c0.6,0,1.2-0.2,1.7-0.6l3.2,3.2c0.1,0.1,0.2,0.1,0.3,0.1c0.1,0,0.3-0.1,0.4-0.2
					c0.1-0.1,0.2-0.3,0.2-0.4c0-0.1,0-0.2-0.1-0.3l-1-1l0.5-0.5C10.9,64.4,10.9,64.4,11,64.5z M7.7,61.7C7.5,61.9,7.3,62,7,62
					c-0.1,0-0.3,0-0.4-0.1c0.1,0.1,0.1,0.3,0.1,0.4c0,0.3-0.1,0.5-0.3,0.6c-0.2,0.2-0.4,0.3-0.6,0.3c-0.3,0-0.5-0.1-0.6-0.3
					c-0.2-0.2-0.3-0.4-0.3-0.6c0-0.3,0.1-0.5,0.3-0.6c0.2-0.2,0.4-0.3,0.6-0.3c0.1,0,0.3,0,0.4,0.1c-0.1-0.1-0.1-0.3-0.1-0.4
					c0-0.3,0.1-0.5,0.3-0.6s0.4-0.3,0.6-0.3c0.3,0,0.5,0.1,0.6,0.3C7.9,60.6,8,60.8,8,61C8,61.3,7.9,61.5,7.7,61.7z"/>
			</g>
		</g>
		<text transform="matrix(1 0 0 1 16 66)" class="st9 st6">USERS_PK (UUID)</text>
	</g>
</g>
</svg>
